# xmcd
# 
# Track frame offsets:
#     150
#     11230
#     28620
#     44892
#     62980
#     76852
#     90667
#     103232
#     116047
#     126195
# 
# Disc length: 1862
# 
# Revision: 4
# Processed by: cddbd v1.5.2PL0 Copyright (c) Steve Scherf et al.
# Submitted via: fre:ac v1.0.31
# 
DISCID=8b07440a
DTITLE=Vern Gosdin - Super Hits
DYEAR=1993
DGENRE=Country
TTITLE0=Set 'Em Up Joe
TTITLE1=Chiseled In Stone
TTITLE2=Do You Believe Me Now
TTITLE3=That Just About Does It
TTITLE4=This Ain't My First Rodeo
TTITLE5=Tanqueray
TTITLE6=I'm Still Crazy
TTITLE7=Who You Gonna Blame It On This Time
TTITLE8=Right In The Wrong Direction
TTITLE9=Is It Raining At Your House
EXTD=
EXTT0=
EXTT1=
EXTT2=
EXTT3=
EXTT4=
EXTT5=
EXTT6=
EXTT7=
EXTT8=
EXTT9=
PLAYORDER=
